<svg xmlns="http://www.w3.org/2000/svg" viewBox="0 0 234.23 910"><defs><style>.a{fill:#93a4a6;}.a,.k{opacity:0.2;}.b{fill:#e27aa5;}.c{fill:#e869b1;}.d{fill:#414556;}.e{fill:#272a44;}.f{fill:#191c2d;}.g{fill:#ef9426;}.h{fill:#fff;}.i,.k,.v{fill:#650e81;}.i{opacity:0.1;}.j{fill:#dd336b;}.l{fill:#efb1a0;}.m{fill:#f7ccbc;}.n{fill:#efa3b2;opacity:0.5;}.o{fill:#e59a88;}.p{fill:#f3bfaa;opacity:0.8;}.q{fill:#1e120d;}.r{fill:#3f280d;}.s{fill:#e85481;}.t{fill:#d13b6d;}.u{fill:#ef89b0;}.v{opacity:0.05;}.w{fill:#dd6f9c;}</style></defs><g transform="translate(-1251.001 214)"><g transform="translate(6 -47)"><rect class="a" width="3" height="107" rx="1.5" transform="translate(1355 636)"/><rect class="a" width="3" height="71" rx="1.5" transform="translate(1313 618)"/><rect class="a" width="3" height="36" rx="1.5" transform="translate(1334 592)"/></g><g transform="translate(1251 -214)"><path class="b" d="M720.3,584.71c-.5,2.56,1.84,18.1,4.36,19.14s10.42-16.78,6.58-23.68C730.59,579,720.83,582,720.3,584.71Z" transform="translate(-657.89 -21.69)"/><path class="c" d="M728.24,600.1s53.28-5.6,135.42,79.72c9.42,9.78-32.42,34.78-73.8,15.23C770.67,686,717.31,642.75,728.24,600.1Z" transform="translate(-657.89 -21.69)"/><rect class="d" width="2.42" height="520.62" transform="translate(57.81)"/><rect class="d" width="2.42" height="520.62" transform="translate(69.5)"/><rect class="d" width="2.42" height="520.62" transform="translate(81.19)"/><rect class="d" width="2.42" height="520.62" transform="translate(92.88)"/><path class="e" d="M746,597.69a19,19,0,0,1-8,14.56,15.791,15.791,0,0,1-1.71,1.08,18.54,18.54,0,0,1-7.69,2.35,23.25,23.25,0,0,1-2.51,0,19,19,0,0,1-12.28-5.45,16.335,16.335,0,0,1-1.37-1.51,18.81,18.81,0,0,1-4.25-11.37.62.62,0,0,1,.63-.63.6.6,0,0,1,.34.11h0l.14.14,4.6,4.61a13.047,13.047,0,0,0,2.56,2,12.546,12.546,0,0,0,1.84.93,13.43,13.43,0,0,0,7.76.78,13.988,13.988,0,0,0,2-.54,11.225,11.225,0,0,0,1.09-.45,11.918,11.918,0,0,0,1.78-1,13.617,13.617,0,0,0,2.11-1.72h0a13.55,13.55,0,0,0,0-19.15l-4.56-4.56a2.14,2.14,0,0,1-.63-1.51V556.35a6.413,6.413,0,0,1,.09-1.09,6.6,6.6,0,0,1,13.13.9v25a8.57,8.57,0,0,0,1.54,4.92A18.83,18.83,0,0,1,746,597.69Z" transform="translate(-657.89 -21.69)"/><rect class="f" width="13.22" height="6.55" transform="translate(69.95 544.35)"/><path class="d" d="M742.5,568H727.37a2.36,2.36,0,0,1-2.13-1.34l-11.55-24.14a2.36,2.36,0,0,1,2.13-3.38h38.24a2.36,2.36,0,0,1,2.13,3.38l-11.55,24.14A2.36,2.36,0,0,1,742.5,568Z" transform="translate(-657.89 -21.69)"/><path class="g" d="M719.81,555.26l5.43,11.35a2.36,2.36,0,0,0,2.13,1.34h2.92L725,555.26Z" transform="translate(-657.89 -21.69)"/><path class="h" d="M67.2,533.56h-.09l5.29,12.7h5.44l-5.29-12.7Z"/><path class="g" d="M72.64,533.56h-.09l5.29,12.7h5.44l-5.3-12.7Z"/><path class="h" d="M741.32,555.26h-5.44L741.17,568h1.33a2.36,2.36,0,0,0,2.13-1.34l.76-1.58Z" transform="translate(-657.89 -21.69)"/><path class="g" d="M90.4,537.26l-1.54-3.7H83.42l4.07,9.77Z"/><path class="h" d="M92.17,533.56H88.86l1.54,3.7Z"/><path class="i" d="M779.58,652.6C764,635.13,756,600.7,728.15,600.53,717.67,643,770.74,686,789.86,695.05a74.84,74.84,0,0,0,55.66,3.49C819.2,692.87,797.07,673.9,779.58,652.6Z" transform="translate(-657.89 -21.69)"/><path class="j" d="M858.52,681.31s-8.47,20.23-32.07,32.43c-26.82,13.86-102.68,24.86-119.17-11.92s63.63-65.85,81.14-65.58S852.21,658.39,858.52,681.31Z" transform="translate(-657.89 -21.69)"/><path class="k" d="M707.27,701.81c16.49,36.79,92.35,25.78,119.17,11.92a74.55,74.55,0,0,0,28.21-25.48,49.5,49.5,0,0,0,3.87-7c-6.3-22.92-52.6-44.81-70.1-45.08h-1c-1.66,20.2,13.83,39.84,32.13,47.6-22.16-7.61-37.68-25-49.19-44.05C741.18,649.59,694.91,674.24,707.27,701.81Z" transform="translate(-657.89 -21.69)"/><circle class="l" cx="12.19" cy="12.19" r="12.19" transform="translate(126.516 600.08) rotate(-83.11)"/><circle class="l" cx="12.45" cy="12.45" r="12.45" transform="translate(204.721 667.498) rotate(-83.11)"/><path class="m" d="M864,682.58c-8.51,5.82-27.78,7.14-49.88-6.84-39.13-24.72-29-56-10.17-62.1,0,0,25.93-52.05,69.83-18.16C915.51,627.67,874.43,675.48,864,682.58Z" transform="translate(-657.89 -21.69)"/><circle class="n" cx="10.44" cy="10.44" r="10.44" transform="translate(176.152 650.167) rotate(-57.71)"/><path class="n" d="M811.6,641.17a10.43,10.43,0,1,1,1.365-7.872A10.44,10.44,0,0,1,811.6,641.17Z" transform="translate(-657.89 -21.69)"/><path class="o" d="M875.68,673.86l.59-.12a10.2,10.2,0,0,1,1.58-.16h1a8.2,8.2,0,0,1,1.09.2,6.813,6.813,0,0,1,1.09.41,8,8,0,0,1,1,.62,4,4,0,0,1,.45.39,5.226,5.226,0,0,1,.39.43,4.508,4.508,0,0,1,.6,1,6.534,6.534,0,0,1,.57,2,8.713,8.713,0,0,1,.06,1.59c0,.39,0,.61,0,.59a.53.53,0,1,0,1,.3,7.234,7.234,0,0,0,.23-.69,8.764,8.764,0,0,0,.29-1.85,7.069,7.069,0,0,0-.41-2.71,6.441,6.441,0,0,0-.76-1.42,5.162,5.162,0,0,0-.54-.64,6.574,6.574,0,0,0-.62-.56,6.85,6.85,0,0,0-1.41-.86,6.517,6.517,0,0,0-1.51-.49,7.162,7.162,0,0,0-1.46-.13,7.855,7.855,0,0,0-1.28.14,7.659,7.659,0,0,0-1.79.59,4.748,4.748,0,0,0-.47.25l-.17.1-.18.11a.53.53,0,0,0,.55.9Z" transform="translate(-657.89 -21.69)"/><path class="o" d="M793.24,606.46l.49-.35a10.655,10.655,0,0,1,1.38-.78,7.016,7.016,0,0,1,1-.38,8.8,8.8,0,0,1,1.08-.26,6.71,6.71,0,0,1,1.16-.07,7.625,7.625,0,0,1,1.18.15,4.449,4.449,0,0,1,.57.17l.53.24a4.548,4.548,0,0,1,.94.64,6.512,6.512,0,0,1,1.35,1.64,8.571,8.571,0,0,1,.7,1.43c.14.36.21.57.21.56a.53.53,0,1,0,1-.14,6.462,6.462,0,0,0-.06-.72,8.733,8.733,0,0,0-.48-1.81,7.089,7.089,0,0,0-1.48-2.31,6.4,6.4,0,0,0-1.27-1,5.448,5.448,0,0,0-.75-.37,6.64,6.64,0,0,0-2.43-.48,6.441,6.441,0,0,0-1.58.17,7.291,7.291,0,0,0-1.38.48,7.561,7.561,0,0,0-2.5,1.91,4.407,4.407,0,0,0-.33.42l-.11.16-.12.17a.53.53,0,1,0,.87.59Z" transform="translate(-657.89 -21.69)"/><path class="p" d="M833.86,634.24c-.83,1.11-.33,3,1.12,4.14s3.3,1.25,4.14.15.33-3-1.12-4.15S834.69,633.13,833.86,634.24Z" transform="translate(-657.89 -21.69)"/><path class="o" d="M835.68,633.36h-.11a1,1,0,0,0-.37,0,2.68,2.68,0,0,0-1.35.34,2.832,2.832,0,0,0-.76.61,2.621,2.621,0,0,0-.58,1,3,3,0,0,0-.12,1.25,4,4,0,0,0,.36,1.15,4.258,4.258,0,0,0,.62.91l.19.22.16.16a3.4,3.4,0,0,0,.47.38,3.46,3.46,0,0,0,1.84.56,4.683,4.683,0,0,0,1.21-.14l.43-.13a.271.271,0,0,0-.01-.51l-.41-.13a8.786,8.786,0,0,1-1-.34,2.78,2.78,0,0,1-1-.67l-.17-.21-.13-.18a1.074,1.074,0,0,0-.07-.14c-.13-.22-.24-.43-.34-.64a3.523,3.523,0,0,1-.18-.58,2,2,0,0,1,0-.5,1.91,1.91,0,0,1,.41-.9,3.651,3.651,0,0,1,.63-.6,1.64,1.64,0,0,1,.35-.2.34.34,0,1,0-.06-.67Z" transform="translate(-657.89 -21.69)"/><path class="q" d="M819.18,623.34H819v-.33a5.411,5.411,0,0,0-.51-1.37,3.119,3.119,0,0,0-.4-.58.61.61,0,0,0-1,.23,3.078,3.078,0,0,0-.12.7,5.381,5.381,0,0,0,.11,1.45,1.043,1.043,0,0,0,.1.33,3.37,3.37,0,1,0,2.07-.43Z" transform="translate(-657.89 -21.69)"/><path class="q" d="M859.08,652.17a3,3,0,0,0-.63-.32,5.38,5.38,0,0,0-1.42-.32h-.17a3.39,3.39,0,1,0-.37,1.93l.38.06a5.288,5.288,0,0,0,1.45-.08,3,3,0,0,0,.68-.21.61.61,0,0,0,.09-1Z" transform="translate(-657.89 -21.69)"/><path class="q" d="M826.6,639a1.65,1.65,0,0,0-.06.18,3.327,3.327,0,0,1-.14.54,6,6,0,0,0-.1,2,3.606,3.606,0,0,0,.1.61,3.109,3.109,0,0,0,.18.63,3.527,3.527,0,0,0,.27.63,4.1,4.1,0,0,0,.35.63,4.172,4.172,0,0,0,.45.61,4.919,4.919,0,0,0,.53.59,10.489,10.489,0,0,0,1.21,1.05l.75.52.68.37a7.47,7.47,0,0,0,1.44.55A6.781,6.781,0,0,0,835,648a10.075,10.075,0,0,0,1.1-.24,8.2,8.2,0,0,0,.83-.31,7.072,7.072,0,0,0,.67-.33.53.53,0,0,1,.67.82,5.59,5.59,0,0,1-.73.59,9.226,9.226,0,0,1-.91.53,7.288,7.288,0,0,1-2.91.76,7.453,7.453,0,0,1-1.85-.13A8.594,8.594,0,0,1,830,649c-.31-.16-.64-.32-.92-.49l-.76-.5a10.009,10.009,0,0,1-.81-.65,6.4,6.4,0,0,1-.72-.69,5.248,5.248,0,0,1-.64-.76,6.006,6.006,0,0,1-.54-.82,6.2,6.2,0,0,1-.7-1.75,5.693,5.693,0,0,1-.19-1.67,6.42,6.42,0,0,1,.53-2.4,4.735,4.735,0,0,1,.45-.83.53.53,0,0,1,.92.51Z" transform="translate(-657.89 -21.69)"/><path class="q" d="M858.23,648.92a3,3,0,0,0-.7.1,5.38,5.38,0,0,0-1.35.55l-.14.09a3.39,3.39,0,1,0,.8,1.8c.11-.06.23-.1.34-.17a5.289,5.289,0,0,0,1.14-.9,2.993,2.993,0,0,0,.43-.56.61.61,0,0,0-.53-.91Z" transform="translate(-657.89 -21.69)"/><path class="r" d="M868.91,592.75l-.09-.13a4.056,4.056,0,0,1-.26-.4,6.818,6.818,0,0,1-.74-1.75,9.249,9.249,0,0,1-.3-2.87,9.359,9.359,0,0,1,.92-3.64,7.08,7.08,0,0,1,8.19-3.95,9.44,9.44,0,0,1,4.86,2.37,5.12,5.12,0,0,1,1.49,2.7,3.6,3.6,0,0,1-.09,1.73,3.19,3.19,0,0,1-1,1.52,3.46,3.46,0,0,1-1.62.7,3.5,3.5,0,0,1-1.76-.12,5,5,0,0,1-2.32-2.08,11.069,11.069,0,0,1-1.57-5.12,10.8,10.8,0,0,1,.8-4.91,10.22,10.22,0,0,1,2.58-3.63,11.529,11.529,0,0,1,3.12-2,16.4,16.4,0,0,1,2.65-.9,17.54,17.54,0,0,1,1.75-.34l.62-.09a.53.53,0,0,1,.19,1h0l-.58.13c-.38.09-.93.23-1.62.45a12.64,12.64,0,0,0-5,2.87,8.52,8.52,0,0,0-2,3.12,9.808,9.808,0,0,0-.55,4.13,9.219,9.219,0,0,0,1.33,4.2,3.17,3.17,0,0,0,1.36,1.28,1.67,1.67,0,0,0,.76,0,1.5,1.5,0,0,0,.7-.3,1.36,1.36,0,0,0,.44-1.35,3.2,3.2,0,0,0-.92-1.67,7.61,7.61,0,0,0-3.87-1.9,5.86,5.86,0,0,0-3.9.32,5.78,5.78,0,0,0-2.51,2.52,8.589,8.589,0,0,0-.94,3,7.9,7.9,0,0,0,.11,2.47,6.343,6.343,0,0,0,.49,1.48,3.831,3.831,0,0,0,.21.38l.08.14a.53.53,0,0,1-.89.57Z" transform="translate(-657.89 -21.69)"/><path class="s" d="M867.51,592.2s-1-15.19-7.22-17.13c-3.17-1-15,8.31-12.27,16.25,1.86,5.33,17,4.34,17,4.34S868.12,596,867.51,592.2Z" transform="translate(-657.89 -21.69)"/><path class="s" d="M867.44,592.15s14.37-5,18.59,0c2.14,2.53-1.78,17.09-10.17,17.63-5.63.37-10.65-14-10.65-14S863.74,593.06,867.44,592.15Z" transform="translate(-657.89 -21.69)"/><path class="t" d="M859.11,583a16.282,16.282,0,0,1,1.52,1.44,21.128,21.128,0,0,1,1.39,1.63,18.575,18.575,0,0,1,1.38,2.05c.22.36.4.74.59,1.12s.32.76.48,1.13a10.188,10.188,0,0,1,.51,2.12,7.492,7.492,0,0,1,0,.88,3,3,0,0,1-.06.67l-.1.57a.1.1,0,0,1-.19-.01h0v-.56a2.784,2.784,0,0,0,0-.63,4.363,4.363,0,0,0-.13-.81c-.06-.29-.15-.61-.25-.94a8.244,8.244,0,0,0-.39-1c-.15-.33-.3-.71-.5-1.06s-.37-.71-.59-1.06a37.182,37.182,0,0,0-2.54-3.71c-.75-1-1.28-1.62-1.28-1.62a.13.13,0,0,1,.18-.18Z" transform="translate(-657.89 -21.69)"/><path class="t" d="M854.75,588.44a16.224,16.224,0,0,1,2.1.58,23.3,23.3,0,0,1,4.36,2,19.749,19.749,0,0,1,2.12,1.47,11.549,11.549,0,0,1,.89.78c.27.27.54.5.75.75a10.24,10.24,0,0,1,1,1.24l.33.5a.1.1,0,0,1-.15.12h0l-.41-.43a14.516,14.516,0,0,0-1.11-1.08c-.23-.22-.51-.43-.79-.66s-.61-.44-.92-.69-.67-.45-1-.69-.72-.44-1.08-.67a49.687,49.687,0,0,0-6.15-3,.114.114,0,0,1,.06-.22Z" transform="translate(-657.89 -21.69)"/><path class="t" d="M880.34,596.78s-.79-.24-2-.55a37.127,37.127,0,0,0-4.41-.89c-.4-.07-.81-.09-1.2-.13a11.42,11.42,0,0,0-1.17,0h-1.09a8.288,8.288,0,0,0-1,.13,5.16,5.16,0,0,0-.8.2,2.82,2.82,0,0,0-.6.22l-.52.21h0a.1.1,0,1,1-.09-.17l.49-.32a3.061,3.061,0,0,1,.59-.32,7.33,7.33,0,0,1,.82-.31,10.261,10.261,0,0,1,2.15-.36h1.23a4.887,4.887,0,0,1,1.26.11,18.622,18.622,0,0,1,2.43.47,16.86,16.86,0,0,1,2,.65,16.347,16.347,0,0,1,1.92.83.13.13,0,0,1-.1.23Z" transform="translate(-657.89 -21.69)"/><path class="t" d="M877,602.84a49.825,49.825,0,0,0-5.14-4.5c-.35-.24-.68-.51-1-.73s-.68-.47-1-.66-.66-.42-1-.58-.62-.34-.92-.47a14.651,14.651,0,0,0-1.42-.6l-.55-.21h0a.093.093,0,1,1,.05-.18l.59.11a10.275,10.275,0,0,1,1.53.42c.31.1.63.26,1,.4a11.438,11.438,0,0,1,1.07.52,19.867,19.867,0,0,1,2.17,1.38,23.259,23.259,0,0,1,3.54,3.23,16.115,16.115,0,0,1,1.35,1.71.13.13,0,0,1,0,.17.135.135,0,0,1-.27-.01Z" transform="translate(-657.89 -21.69)"/><path class="j" d="M865.51,588.39c-1.79.17-5.23,4-4.38,6.38s5.64,5,6.95,4.6c2.24-.73,4.74-5.42,3.68-7S867.47,588.2,865.51,588.39Z" transform="translate(-657.89 -21.69)"/><path class="u" d="M721.24,602.27s-18.64,30-33,53c-20,32-32.65,35.46-30,60.67,1.33,12.67,37.5,48.3,88.83,44.17,80.75-6.5,105-51.14,105-51.14,7-5.23,10.34-16.86,9.47-19.36,0,0-15.66,13.21-45,0-43.67-19.67-54.67-82.33-85-88.67C731.58,600.94,724.74,598.27,721.24,602.27Z" transform="translate(-657.89 -21.69)"/><path class="v" d="M740.58,711.6c25,21.74,58.3,27,89.53,20.32,15.37-11.45,21.52-22.1,22-22.91C821.08,735.54,774.4,730.5,740.58,711.6Z" transform="translate(-657.89 -21.69)"/><path class="v" d="M751.58,685.6c29.09,22.39,76.49,38.51,106,9a30.429,30.429,0,0,0,4-4.91s0-.07,0-.09a21.691,21.691,0,0,1-4.64,2.71C826.14,714.63,786.08,701.35,751.58,685.6Z" transform="translate(-657.89 -21.69)"/><path class="v" d="M731.77,631.36c6.74-9.07,8.28-21.52.23-30.32l-.42-.1a15.1,15.1,0,0,0-3.74-.82A45,45,0,0,1,731.77,631.36Z" transform="translate(-657.89 -21.69)"/><path class="v" d="M724.46,600.36a6.34,6.34,0,0,0-2.93,1.64c-.52,12-9.2,29.94-9.82,36C720.61,629.22,723.53,613.26,724.46,600.36Z" transform="translate(-657.89 -21.69)"/><path class="w" d="M861.74,689.71s-.25.43-.8,1.21a33.63,33.63,0,0,1-2.56,3.19,46,46,0,0,1-4.58,4.41l-1.46,1.22c-.51.42-1.07.78-1.63,1.2L849,702.16l-1.92,1.14c-.66.38-1.31.81-2,1.17l-2.17,1.07a42.25,42.25,0,0,1-4.69,2,45.717,45.717,0,0,1-5.12,1.63,46.346,46.346,0,0,1-5.49,1.18,46.911,46.911,0,0,1-5.75.72c-1,.08-2,.21-2.95.24h-6c-1,0-2-.15-3-.22l-3-.27-1.51-.14h-.38a.827.827,0,0,1-.41-.06l-.74-.12-5.89-1c-2-.4-3.93-.88-5.88-1.31l-1.46-.33-1.42-.42-2.82-.84c-1.88-.51-3.68-1.2-5.46-1.84-.89-.33-1.78-.62-2.64-1l-2.54-1.09-2.48-1.07-2.36-1.18-2.29-1.15-2.2-1.27-2.08-1.2-1.95-1.26-1.86-1.21-1.72-1.25c-.55-.41-1.1-.8-1.62-1.2l-1.48-1.19c-1-.75-1.82-1.52-2.62-2.23s-1.5-1.38-2.13-2a40.413,40.413,0,0,1-2.79-3c-.62-.72-.92-1.14-.92-1.14a.38.38,0,0,1,.59-.48h0s.32.36,1,1,1.65,1.57,3,2.7c.66.56,1.38,1.19,2.21,1.81s1.7,1.34,2.7,2l1.52,1.07c.53.36,1.09.7,1.65,1.07l1.74,1.12,1.87,1.1,2,1.14,2.08,1.08,2.15,1.12,2.27,1,2.33,1.08,2.45,1,2.5,1c.85.32,1.72.59,2.59.9,1.75.59,3.51,1.23,5.35,1.69l2.76.76,1.39.39,1.41.31c1.88.41,3.76.87,5.68,1.25l5.89,1,.74.12c.1,0,.29.05.33,0h.37l1.46.14,2.92.29c1,.08,1.94.24,2.91.24h5.77c1,0,1.89-.12,2.83-.17a44.449,44.449,0,0,0,5.54-.56,46.574,46.574,0,0,0,5.29-1,43.624,43.624,0,0,0,5-1.37,40.811,40.811,0,0,0,4.58-1.71l2.15-.91c.7-.31,1.34-.69,2-1l1.91-1,1.75-1.09c.57-.36,1.14-.68,1.66-1l1.51-1.08a44.809,44.809,0,0,0,4.78-4c1.24-1.2,2.17-2.19,2.78-2.89s.89-1.1.89-1.1a.19.19,0,0,1,.27,0,.2.2,0,0,1-.09.37Z" transform="translate(-657.89 -21.69)"/><path class="w" d="M740.84,710.17l1.24.64c.81.42,2,1,3.55,1.73,3.07,1.46,7.55,3.36,13,5.37,1.38.47,2.79,1,4.29,1.47l2.27.75,2.36.71c3.19,1,6.59,1.82,10.12,2.61,1.77.36,3.57.76,5.41,1,.92.15,1.84.32,2.77.46l2.81.38c1.88.28,3.79.37,5.7.57a55.34,55.34,0,0,0,5.76.21c1.92,0,3.85,0,5.76-.11l2.86-.16,2.83-.32a80.866,80.866,0,0,0,10.92-2c1.74-.46,3.42-1,5.09-1.51s3.21-1.21,4.77-1.79,3-1.37,4.39-2a22.22,22.22,0,0,0,2-1.06l1.94-1.07c.63-.36,1.27-.67,1.85-1.05l1.71-1.11c1.1-.73,2.2-1.37,3.15-2.07,1.87-1.45,3.58-2.63,4.86-3.75s2.3-2,3-2.6l1.07-.92h0a.074.074,0,0,1,.1.11l-1,1c-.64.66-1.56,1.65-2.77,2.87s-2.83,2.54-4.62,4.14c-.91.78-2,1.51-3,2.33l-1.66,1.24c-.57.42-1.21.78-1.83,1.18l-1.92,1.21a23.149,23.149,0,0,1-2,1.2c-1.42.74-2.88,1.53-4.41,2.27s-3.17,1.38-4.83,2-3.42,1.22-5.2,1.74a79.071,79.071,0,0,1-11.23,2.38l-2.92.37-3,.21c-2,.18-4,.17-5.95.2-1,0-2,0-3-.07l-3-.13c-2-.2-3.94-.3-5.87-.59l-2.89-.39c-1-.13-1.9-.33-2.84-.5-1.89-.31-3.72-.75-5.53-1.15s-3.57-.89-5.29-1.36-3.39-1-5-1.55c-3.23-1-6.22-2.21-9-3.32s-5.2-2.25-7.34-3.33-4-2-5.51-2.87c-3-1.68-4.64-2.79-4.64-2.79a.5.5,0,0,1,.52-.86Z" transform="translate(-657.89 -21.69)"/><path class="w" d="M727.24,599.81l.27.29c.18.2.43.48.73.86a15.353,15.353,0,0,1,1,1.4l.57.89.57,1a26.406,26.406,0,0,1,1.15,2.39,27,27,0,0,1,1,2.78L733,611c.13.51.22,1,.33,1.57a32.02,32.02,0,0,1,.49,3.23c.12,1.09.11,2.19.17,3.26s-.11,2.14-.15,3.16a27.51,27.51,0,0,1-.42,2.91,21.5,21.5,0,0,1-.6,2.56,17.5,17.5,0,0,1-.64,2.12c-.23.62-.45,1.15-.62,1.59-.36.87-.58,1.36-.58,1.36a.38.38,0,0,1-.73-.19h0a9.42,9.42,0,0,1,.16-1.45c.06-.46.13-1,.23-1.64s.13-1.35.22-2.12a20.945,20.945,0,0,0,.2-2.49l.1-2.77c0-1,0-1.94-.06-2.95s-.11-2-.25-3-.21-2-.43-3c-.09-.49-.19-1-.26-1.46l-.32-1.41c-.19-.94-.48-1.81-.69-2.67l-.39-1.22a11.705,11.705,0,0,0-.37-1.14c-.49-1.46-1-2.64-1.35-3.48l-.42-1c-.1-.21-.16-.34-.16-.34a.51.51,0,0,1,.81-.59Z" transform="translate(-657.89 -21.69)"/><path class="w" d="M725.33,600.63v.46c0,.3.07.74.05,1.31s0,1.26,0,2.06v1.27l-.14,1.39c-.09,1-.21,2-.35,3.13a26.847,26.847,0,0,1-.63,3.46c-.26,1.19-.52,2.43-.83,3.67l-.23.94-.32,1c-.2.6-.39,1.21-.61,1.82s-.4,1.2-.67,1.81l-.79,1.81c-.26.6-.54,1.18-.8,1.77l-.87,1.65a30.866,30.866,0,0,1-1.76,3c-.61.89-1.15,1.84-1.73,2.63a39.751,39.751,0,0,1-4.09,5,.38.38,0,0,1-.6-.46h0l.84-1.53.95-1.77c.38-.67.74-1.47,1.2-2.3s.86-1.78,1.36-2.74.93-2,1.43-3.09l.74-1.63c.22-.55.42-1.12.66-1.68l.69-1.69c.24-.56.41-1.2.61-1.8s.41-1.21.62-1.81l.29-.84.23-.9c.29-1.2.63-2.37.94-3.51s.66-2.23.86-3.29.45-2.06.68-3,.41-1.77.55-2.52.29-1.41.4-2c.22-1.09.34-1.74.34-1.74a.51.51,0,0,1,1,.05Z" transform="translate(-657.89 -21.69)"/><path class="u" d="M728.08,600.11c.77-1.54-12.33-16.83-15.5-16.33s-7.5,7.67-4.67,10.33S726.58,603.11,728.08,600.11Z" transform="translate(-657.89 -21.69)"/><path class="q" d="M821,624.19l-.14-.1c0-.1.11-.19.15-.3a5.412,5.412,0,0,0,.37-1.41,3.117,3.117,0,0,0,0-.71.61.61,0,0,0-1-.41,3.075,3.075,0,0,0-.5.5,5.382,5.382,0,0,0-.75,1.25,1.07,1.07,0,0,1-.11.33,3.37,3.37,0,1,0,1.94.85Z" transform="translate(-657.89 -21.69)"/></g></g></svg>