<svg xmlns="http://www.w3.org/2000/svg" viewBox="0 0 138.958 296.997"><defs><style>.a{fill:#5cc7ce;}.b{fill:#62cca6;}.c{fill:#469b9b;}.d{fill:#93a4a6;}.e{fill:#fff;opacity:0.8;}.f{fill:#4cbec5;}.g{fill:#f794ae;}</style></defs><g transform="matrix(0.978, 0.208, -0.208, 0.978, 26.316, -0.007)"><path class="a" d="M113.8,50.6c9,50.8-29,71.3-47,75.3-.2,0-.4.1-.7.1h0l-8.5.7h0C37.9,126.7,8.3,115.3,1.8,83-5.9,45,12.2,10.7,42.2,1.8,60.5-3.7,105,1,113.8,50.6Z"/><path class="a" d="M66.2,126.1c0,2,2,13.2,2,15.5-3.8-3.8-15.2,0-15.2,0-1.7-1.7,4.6-14.8,4.6-14.8h0a38.409,38.409,0,0,0,8.6-.7Z"/><path class="b" d="M57.6,126.8l8.5-.7A37,37,0,0,1,57.6,126.8Z"/><path class="c" d="M53,141.6s11.4-3.8,15.2,0C68.2,144,54.7,143.3,53,141.6Z"/><path class="c" d="M36.3,18.7c-1.8,1.9-3.4,4.3-3.5,6.7a5.236,5.236,0,0,0,1,3.4c.1.3.4.5.6.7s.4.5.6.6a5.968,5.968,0,0,0,1.5.9c2.2.8,4.8-.1,6.7-1.7a6.818,6.818,0,0,0,2.2-2.9,2.528,2.528,0,0,0-.3-2.8c-.3-.4-.7-.6-.9-.5-.2,0-.6.3-.9.8a6.461,6.461,0,0,0-1,3.4,7.6,7.6,0,0,0,2.5,6.6,6.5,6.5,0,0,0,3.4,1.4,7.751,7.751,0,0,0,3.7-.2c2.4-.7,4.2-2.9,5.3-5.2h0a.539.539,0,0,1,1,.4A10.7,10.7,0,0,1,56,34a10.4,10.4,0,0,1-3.6,2.6A9.463,9.463,0,0,1,48,37a8.92,8.92,0,0,1-4.2-1.7,7.608,7.608,0,0,1-2.7-3.7,10.925,10.925,0,0,1-.6-4.4,8.965,8.965,0,0,1,1.3-4.4,3.364,3.364,0,0,1,2.3-1.6,2.877,2.877,0,0,1,1.6.3,3.126,3.126,0,0,1,1.1.9,4.116,4.116,0,0,1,1.1,2.4,5.278,5.278,0,0,1-.4,2.5,9.028,9.028,0,0,1-2.8,3.6,10.269,10.269,0,0,1-4,2.1,8.524,8.524,0,0,1-2.3.3,5.932,5.932,0,0,1-2.3-.5,8.175,8.175,0,0,1-2-1.2,6.034,6.034,0,0,1-.8-.8c-.2-.3-.5-.6-.7-.9a6.354,6.354,0,0,1-1.1-4.4A9.655,9.655,0,0,1,33,21.4a17.5,17.5,0,0,1,2.8-3.3c.2-.2.6-.2.7,0,.1.1.1.4-.2.6Z"/><circle cx="3.1" cy="3.1" r="3.1" transform="translate(29 50.9)"/><circle cx="3.1" cy="3.1" r="3.1" transform="translate(67.8 46.3)"/><path class="d" d="M57.6,126.3a46.855,46.855,0,0,0,5.3,0,22.753,22.753,0,0,0,2.6-.2c.4-.1.8-.1,1.3-.2a3.582,3.582,0,0,0,1.1-.4l-.4.5c.6-1.1,1.6,0,1.1-.3h0l.1.1.2.2.3.4a3.508,3.508,0,0,1,.5.8,14,14,0,0,1,1,1.6,21.1,21.1,0,0,1,1.6,3.4,19.136,19.136,0,0,1,1.3,7.5,23.181,23.181,0,0,1-.6,3.8,14.193,14.193,0,0,1-1.7,3.5,66.515,66.515,0,0,1-4.6,5.9,59.154,59.154,0,0,0-4.5,5.7,6.471,6.471,0,0,0-1.1,3.1,1.7,1.7,0,0,0,.1.7v.2h0v.1l.1.4a11.111,11.111,0,0,0,.7,1.6,8.607,8.607,0,0,0,5,4.2,9.115,9.115,0,0,0,6.5-.6,4.988,4.988,0,0,0,2.2-2.1,3.277,3.277,0,0,0,.1-2.9,6.109,6.109,0,0,0-.7-1.4,2.836,2.836,0,0,0-1-.9,3.126,3.126,0,0,0-2.8.2,11.426,11.426,0,0,0-4.8,4.7,21.964,21.964,0,0,0-2.5,6.6,29.75,29.75,0,0,0,.9,14.2c.7,2.3,1.5,4.7,2.2,7,.7,2.4,1.4,4.8,2,7.2a102.717,102.717,0,0,1,2.6,14.7,44.487,44.487,0,0,1-.8,15A25.557,25.557,0,0,1,63,243.5a21.045,21.045,0,0,1-6.5,4.1,12.9,12.9,0,0,1-4,.7,4.834,4.834,0,0,1-3.8-2,7.218,7.218,0,0,1-.9-2,4.571,4.571,0,0,1,.1-2.3,3.178,3.178,0,0,1,1.6-1.8,4.419,4.419,0,0,1,2.2-.5,7.387,7.387,0,0,1,3.9,1.1,10.674,10.674,0,0,1,3.1,2.5,15.633,15.633,0,0,1,3.5,6.9,27.892,27.892,0,0,1,.6,7.6c-.3,4.9-.5,9.8-.5,14.7a59.533,59.533,0,0,0,.4,7.3,10.84,10.84,0,0,0,2.6,6.4.495.495,0,0,1-.7.7,8.859,8.859,0,0,1-2.1-3.3,16.632,16.632,0,0,1-.9-3.7,47.262,47.262,0,0,1-.5-7.5c-.1-5,.1-9.9.3-14.8a24.105,24.105,0,0,0-.6-7.1,14.16,14.16,0,0,0-3.2-6.2,8.289,8.289,0,0,0-5.8-3,2.369,2.369,0,0,0-2.2,1.2,3.268,3.268,0,0,0,0,1.4,3.506,3.506,0,0,0,.6,1.4,3.034,3.034,0,0,0,2.5,1.2,8.662,8.662,0,0,0,3.2-.6,18.988,18.988,0,0,0,5.9-3.7,23.769,23.769,0,0,0,7.3-12,40.772,40.772,0,0,0,.7-14.4,103.735,103.735,0,0,0-2.6-14.4c-.6-2.4-1.3-4.7-1.9-7.1-.7-2.4-1.5-4.6-2.2-7.1a32.131,32.131,0,0,1-.9-15.1,23.229,23.229,0,0,1,2.7-7.2,12.958,12.958,0,0,1,5.7-5.4,5.358,5.358,0,0,1,4.3-.2,5.171,5.171,0,0,1,1.8,1.5,11.4,11.4,0,0,1,1,1.9,5.018,5.018,0,0,1-.3,4.3,6.977,6.977,0,0,1-3,2.9,10.335,10.335,0,0,1-7.9.7,10.122,10.122,0,0,1-6-5.1,14.167,14.167,0,0,1-.8-1.8l-.1-.4V163l-.1-.3a4.485,4.485,0,0,1-.1-1.1,7.919,7.919,0,0,1,1.4-3.8,55.3,55.3,0,0,1,4.7-5.9c3.2-3.7,6.7-7.4,6.7-12.2a18.671,18.671,0,0,0-1.1-7,24.084,24.084,0,0,0-1.5-3.3l-.9-1.5a4.233,4.233,0,0,0-.5-.7l-.3-.4-.1-.2-.1-.1h0c-.5-.4.5.7,1-.4l-.4.5a7.366,7.366,0,0,1-1.4.4,6.753,6.753,0,0,1-1.4.2,24.519,24.519,0,0,1-2.7.2c-1.8,0-3.6,0-5.4-.1a.56.56,0,0,1-.5-.6A1.012,1.012,0,0,1,57.6,126.3Z"/><path class="c" d="M64,72.3a16.672,16.672,0,0,1,.5-8,16.251,16.251,0,0,1,4.2-7,15.837,15.837,0,0,1,7.1-4.1,13.966,13.966,0,0,1,8.1.3.517.517,0,0,1,.3.7.486.486,0,0,1-.6.3h-.1a15.06,15.06,0,0,0-3.7-.2,15.277,15.277,0,0,0-3.6.7,14.984,14.984,0,0,0-6.1,3.8,17.708,17.708,0,0,0-3.9,6.1,23.691,23.691,0,0,0-.9,3.6,15.334,15.334,0,0,0-.2,3.7h0a.472.472,0,0,1-.5.5A.548.548,0,0,1,64,72.3Z"/><path class="c" d="M37.9,74.7a22.954,22.954,0,0,0-.2-3.7,23.69,23.69,0,0,0-.9-3.6,16.36,16.36,0,0,0-3.9-6.1,14.984,14.984,0,0,0-6.1-3.8,15.02,15.02,0,0,0-7.3-.5h-.1a.441.441,0,0,1-.6-.4.486.486,0,0,1,.3-.6,13.966,13.966,0,0,1,8.1-.3,16.389,16.389,0,0,1,7.1,4.1,17.287,17.287,0,0,1,4.2,7,16.672,16.672,0,0,1,.5,8c-.1.3-.3.5-.6.4a.472.472,0,0,1-.5-.5Z"/><path class="e" d="M31.8,12.6C22.6,14.9,15.3,24.9,11.4,33c-2.1,4.5,4.4,7.7,6.8,3.4a101.126,101.126,0,0,1,7-11.3c2.5-3.4,5.9-6.1,8.5-9.5A1.831,1.831,0,0,0,31.8,12.6Z"/><path class="f" d="M33.4,67.5c0-.3-.1-.5-.1-.8h0a5.048,5.048,0,0,0-.9-2.3c-1.9-4-6.2-7.2-10.7-4.7A3.425,3.425,0,0,0,21,65c2.3,2.3,4.4,5,7.3,6.5A3.555,3.555,0,0,0,33.4,67.5Z"/><path class="f" d="M81.2,59a3.7,3.7,0,0,0-3.7-2.5c-2.5-.4-5.1.9-7,2.7a13.449,13.449,0,0,0-4.2,9.4c-.1,2.6,3.2,4.6,5.4,3.1a40.737,40.737,0,0,0,5.9-5.1C79.3,64.8,82.2,61.8,81.2,59Z"/><path class="f" d="M108.1,68.6a5.582,5.582,0,0,0-.5-.8c-.7-2.6-4.2-3.1-6-1.4h0a5.35,5.35,0,0,0-3.3,4.2c-1.6,2.4-3,5-4.7,7.2A78.085,78.085,0,0,1,81.8,89.7c-3.9,3.3-8.6,5.7-13.2,7.9-3.8,1.8-7.5,4.2-9.4,8.1-1.3,2.7-.9,6.6,2.1,8,12.4,6,25.2-2.9,33.8-11.5C102.3,94.9,113.9,79.6,108.1,68.6Z"/><path d="M58,74.3a5.857,5.857,0,0,1-4.5,2.9,5.71,5.71,0,0,1-4.2-1.6h0a10.661,10.661,0,0,1-3.1-7.1c-.4-5.1,2.4-9.4,6-9.6,3.7-.3,7,3.6,7.3,8.7A9.875,9.875,0,0,1,58,74.3Z"/><path class="g" d="M58,74.3a5.857,5.857,0,0,1-4.5,2.9,5.71,5.71,0,0,1-4.2-1.6h0A7.277,7.277,0,0,1,58,74.3Z"/></g></svg>