<svg xmlns="http://www.w3.org/2000/svg" viewBox="0 0 68.137 80"><defs><style>.a{fill:#d8d2cb;}.b{fill:#52b1b8;}.c{fill:#5cc7cd;}</style></defs><g transform="translate(13961.751 6200.271)"><path class="a" d="M9.8,0A9.784,9.784,0,0,0,0,9.8V33.452a9.821,9.821,0,0,0,19.643.046V9.8A9.822,9.822,0,0,0,9.8,0Zm8.34,33.452a8.317,8.317,0,1,1-16.635,0,8.469,8.469,0,0,1,1.55-4.831,7.117,7.117,0,0,1,1.5-1.6,8.413,8.413,0,0,1,10.573,0v2.188a6.706,6.706,0,0,0-5.287-2.507,6.919,6.919,0,0,0-5.287,2.507,6.59,6.59,0,0,0-1.5,4.238,6.791,6.791,0,0,0,13.581,0V9.8a6.791,6.791,0,0,0-13.581,0V26.342A10.238,10.238,0,0,0,1.5,28.211V9.8a8.317,8.317,0,1,1,16.635,0V33.452ZM4.557,25.2V9.8a5.264,5.264,0,0,1,10.528.046V25.2A9.857,9.857,0,0,0,9.8,23.653,9.438,9.438,0,0,0,4.557,25.2Zm10.528,8.249a5.264,5.264,0,1,1-5.241-5.287A5.29,5.29,0,0,1,15.085,33.452Z" transform="translate(-13929.6 -6161.449) rotate(-18)"/><g transform="translate(-13961.75 -6200.271)"><path class="b" d="M108.85,27,96.662,43.071,86.2,29.121l20.283-4.571C109.459,23.8,110.323,24.992,108.85,27Z" transform="translate(-43.623 -13.136)"/><path class="b" d="M30.556,40.68,3.864,47.338c-1.7.386-2.077,2.189-.508,2.9l26.032,7.618Z" transform="translate(-2.361 -21.186)"/><path class="c" d="M51.227,64.559l3.438-60.7c0-1.717,1.772-2.118,2.834-.731l36.336,45.3c1.346,1.59.975,4.4-2.773,2.93L69.148,42.97,55.462,65.625C54.076,68.017,51.11,67.042,51.227,64.559Z" transform="translate(-26.41 -2.293)"/></g></g></svg>