<svg xmlns="http://www.w3.org/2000/svg" xmlns:xlink="http://www.w3.org/1999/xlink" viewBox="0 0 117.871 117.668"><defs><style>.prg-gear-svg{fill:url(#a);}</style><linearGradient id="a" x1="0.144" y1="0.857" x2="0.861" y2="0.139" gradientUnits="objectBoundingBox"><stop offset="0" stop-color="#c3882c"/><stop offset="0.25" stop-color="#deaf68"/><stop offset="0.5" stop-color="#edc483"/><stop offset="0.75" stop-color="#deaf68"/><stop offset="1" stop-color="#c3882c"/></linearGradient></defs><path class="prg-gear-svg" d="M61.578,122.35h-.254a5.936,5.936,0,0,1-3.214-1.776,4.78,4.78,0,0,0-1.776-1.184h-.211a6.4,6.4,0,0,0-1.9.508,7.661,7.661,0,0,1-2.707.634,3.006,3.006,0,0,1-.888-.127,6.092,6.092,0,0,1-2.834-2.326,4.584,4.584,0,0,0-1.565-1.48,5.5,5.5,0,0,0-2.157.085,14.553,14.553,0,0,1-1.9.211,4.014,4.014,0,0,1-1.692-.338,5.79,5.79,0,0,1-2.326-2.791,5.056,5.056,0,0,0-1.269-1.776,4.584,4.584,0,0,0-2.157-.3,6.126,6.126,0,0,1-3.553-.8,5.82,5.82,0,0,1-1.776-3.172,5.462,5.462,0,0,0-.888-1.988,5.156,5.156,0,0,0-2.072-.677,6.11,6.11,0,0,1-3.341-1.438,6.313,6.313,0,0,1-1.184-3.426,4.525,4.525,0,0,0-.55-2.115,4.689,4.689,0,0,0-1.9-1.057,6.476,6.476,0,0,1-3.045-2.03,5.839,5.839,0,0,1-.508-3.595,5.608,5.608,0,0,0-.127-2.157,5.677,5.677,0,0,0-1.649-1.4,5.943,5.943,0,0,1-2.622-2.58,6.267,6.267,0,0,1,.127-3.637,4.582,4.582,0,0,0,.254-2.157,4.563,4.563,0,0,0-1.353-1.649,5.79,5.79,0,0,1-2.072-3,5.991,5.991,0,0,1,.8-3.51,5.566,5.566,0,0,0,.677-2.072,4.584,4.584,0,0,0-1.057-1.9,5.907,5.907,0,0,1-1.48-3.3,6.238,6.238,0,0,1,1.438-3.383,4.95,4.95,0,0,0,1.015-1.9,5.341,5.341,0,0,0-.677-2.072,5.72,5.72,0,0,1-.846-3.51,6,6,0,0,1,2.03-3.045,5.023,5.023,0,0,0,1.353-1.692,5.341,5.341,0,0,0-.3-2.157,6.279,6.279,0,0,1-.211-3.637,5.852,5.852,0,0,1,2.58-2.58,5.677,5.677,0,0,0,1.649-1.4,4.933,4.933,0,0,0,.127-2.157,6.142,6.142,0,0,1,.465-3.595,5.963,5.963,0,0,1,3-2.072,5.014,5.014,0,0,0,1.861-1.1,5.158,5.158,0,0,0,.508-2.115,6.073,6.073,0,0,1,1.142-3.468,6.039,6.039,0,0,1,3.3-1.48,5.127,5.127,0,0,0,2.03-.719,5.144,5.144,0,0,0,.888-1.988,6.021,6.021,0,0,1,1.734-3.214,6.157,6.157,0,0,1,3.553-.846,5.122,5.122,0,0,0,2.157-.338,5.627,5.627,0,0,0,1.227-1.776,6.092,6.092,0,0,1,2.326-2.834,3.924,3.924,0,0,1,1.776-.381,13.832,13.832,0,0,1,1.861.169,4.845,4.845,0,0,0,2.2.042,5.145,5.145,0,0,0,1.523-1.523A6.115,6.115,0,0,1,49.9,6.889a3.523,3.523,0,0,1,.93-.127,8.136,8.136,0,0,1,2.622.592,5.218,5.218,0,0,0,2.157.465,4.977,4.977,0,0,0,1.776-1.227,5.885,5.885,0,0,1,3.172-1.819,5.972,5.972,0,0,1,3.468,1.142,4.92,4.92,0,0,0,1.945.846,5.12,5.12,0,0,0,2.03-.888A6.1,6.1,0,0,1,71.432,4.69a5.936,5.936,0,0,1,3.214,1.776A4.78,4.78,0,0,0,76.423,7.65a4.925,4.925,0,0,0,2.115-.508,7.661,7.661,0,0,1,2.707-.634,3.006,3.006,0,0,1,.888.127,6.092,6.092,0,0,1,2.834,2.326,4.584,4.584,0,0,0,1.565,1.48,5.5,5.5,0,0,0,2.157-.085,14.555,14.555,0,0,1,1.9-.211,4.014,4.014,0,0,1,1.692.338,5.79,5.79,0,0,1,2.326,2.791,5.056,5.056,0,0,0,1.269,1.776,4.584,4.584,0,0,0,2.157.3,6.126,6.126,0,0,1,3.553.8,5.82,5.82,0,0,1,1.776,3.172,5.462,5.462,0,0,0,.888,1.988,5.167,5.167,0,0,0,2.03.677,6.11,6.11,0,0,1,3.341,1.438,6.313,6.313,0,0,1,1.184,3.426,4.525,4.525,0,0,0,.55,2.115,5.243,5.243,0,0,0,1.9,1.057,6.476,6.476,0,0,1,3.045,2.03,5.839,5.839,0,0,1,.508,3.595,5.608,5.608,0,0,0,.127,2.157,5.677,5.677,0,0,0,1.649,1.4,5.943,5.943,0,0,1,2.622,2.58,5.939,5.939,0,0,1-.169,3.637,4.582,4.582,0,0,0-.254,2.157,4.563,4.563,0,0,0,1.353,1.649,5.79,5.79,0,0,1,2.072,3,5.991,5.991,0,0,1-.8,3.51,5.566,5.566,0,0,0-.677,2.072,4.584,4.584,0,0,0,1.057,1.9,6.039,6.039,0,0,1,1.48,3.3,6.238,6.238,0,0,1-1.438,3.383,5.262,5.262,0,0,0-1.015,1.9,5.341,5.341,0,0,0,.677,2.072,5.72,5.72,0,0,1,.846,3.51,6,6,0,0,1-2.03,3.045,5.023,5.023,0,0,0-1.353,1.692,5.341,5.341,0,0,0,.3,2.157,6.278,6.278,0,0,1,.211,3.637,5.852,5.852,0,0,1-2.58,2.58,5.677,5.677,0,0,0-1.649,1.4,4.933,4.933,0,0,0-.127,2.157,6.142,6.142,0,0,1-.465,3.595,5.963,5.963,0,0,1-3,2.072,5.014,5.014,0,0,0-1.861,1.1,5.158,5.158,0,0,0-.508,2.115,4.5,4.5,0,0,1-4.441,4.948,5.127,5.127,0,0,0-2.03.719,5.144,5.144,0,0,0-.888,1.988,6.021,6.021,0,0,1-1.734,3.214,6.157,6.157,0,0,1-3.553.846,5.122,5.122,0,0,0-2.157.338,5.627,5.627,0,0,0-1.227,1.776,6.092,6.092,0,0,1-2.326,2.834,3.924,3.924,0,0,1-1.776.381h0a13.833,13.833,0,0,1-1.861-.169,4.845,4.845,0,0,0-2.2-.042,5.145,5.145,0,0,0-1.523,1.523,6.115,6.115,0,0,1-2.791,2.368,3.523,3.523,0,0,1-.93.127,8.136,8.136,0,0,1-2.622-.592,5.218,5.218,0,0,0-2.157-.465,4.977,4.977,0,0,0-1.776,1.227,5.885,5.885,0,0,1-3.172,1.819,5.972,5.972,0,0,1-3.468-1.142,4.92,4.92,0,0,0-1.945-.846,5.12,5.12,0,0,0-2.03.888,5.917,5.917,0,0,1-3.087,1.184Zm-5.5-5.287a3.2,3.2,0,0,1,.634.042A6.426,6.426,0,0,1,59.59,118.8a4.342,4.342,0,0,0,1.9,1.227,4.437,4.437,0,0,0,2.03-.846,6.93,6.93,0,0,1,3.172-1.227,6.547,6.547,0,0,1,3.13,1.142,4.7,4.7,0,0,0,2.115.846c.55-.042,1.227-.677,1.9-1.227a6.144,6.144,0,0,1,2.876-1.734,3.638,3.638,0,0,1,.677-.042,7.236,7.236,0,0,1,2.664.634,4.106,4.106,0,0,0,2.157.423,4.618,4.618,0,0,0,1.607-1.565,6.66,6.66,0,0,1,2.5-2.242,4.257,4.257,0,0,1,1.523-.254,13.833,13.833,0,0,1,1.861.169,10.59,10.59,0,0,0,1.48.169h0a1.56,1.56,0,0,0,.719-.127,5.04,5.04,0,0,0,1.311-1.819,6.088,6.088,0,0,1,2.03-2.664,5.964,5.964,0,0,1,3.3-.677,4.463,4.463,0,0,0,2.2-.381,4.544,4.544,0,0,0,.93-2.03,6.35,6.35,0,0,1,1.523-3,5.883,5.883,0,0,1,3.13-1.269,4.721,4.721,0,0,0,2.115-.761,4.569,4.569,0,0,0,.55-2.157,6.626,6.626,0,0,1,.93-3.257,6.091,6.091,0,0,1,2.834-1.819c.8-.338,1.649-.677,1.9-1.142a4.163,4.163,0,0,0,.127-2.242,6.4,6.4,0,0,1,.338-3.341,6.5,6.5,0,0,1,2.453-2.326,4.608,4.608,0,0,0,1.692-1.48,4.8,4.8,0,0,0-.254-2.2,6.55,6.55,0,0,1-.3-3.383,6.19,6.19,0,0,1,1.945-2.707,5.267,5.267,0,0,0,1.4-1.776,4.63,4.63,0,0,0-.677-2.115,6.284,6.284,0,0,1-.888-3.257A6.158,6.158,0,0,1,121.93,65.3a4.542,4.542,0,0,0,1.015-2.03,4.706,4.706,0,0,0-1.057-1.945,6.425,6.425,0,0,1-1.48-3.045,6.959,6.959,0,0,1,.846-3.3,4.486,4.486,0,0,0,.634-2.115c-.085-.55-.761-1.142-1.4-1.776a5.963,5.963,0,0,1-1.988-2.707A6.155,6.155,0,0,1,118.758,45a4.85,4.85,0,0,0,.254-2.2,4.608,4.608,0,0,0-1.692-1.48,6.4,6.4,0,0,1-2.453-2.284,6.467,6.467,0,0,1-.381-3.341,4.554,4.554,0,0,0-.169-2.242,4.63,4.63,0,0,0-1.945-1.142,6.362,6.362,0,0,1-2.834-1.776,6.838,6.838,0,0,1-1.015-3.214,4.385,4.385,0,0,0-.592-2.157,4.721,4.721,0,0,0-2.115-.761,6.344,6.344,0,0,1-3.13-1.227,6.415,6.415,0,0,1-1.565-3,4.54,4.54,0,0,0-.973-2.03,4.153,4.153,0,0,0-2.2-.338,6.247,6.247,0,0,1-3.3-.634A6.509,6.509,0,0,1,92.579,14.5a5.04,5.04,0,0,0-1.311-1.819,5.012,5.012,0,0,0-2.242.042,14.412,14.412,0,0,1-1.945.211,3.794,3.794,0,0,1-1.438-.254,6.665,6.665,0,0,1-2.538-2.2c-.55-.677-1.142-1.4-1.649-1.523a4.714,4.714,0,0,0-2.157.465,7.661,7.661,0,0,1-2.707.634,3.2,3.2,0,0,1-.634-.042,6.426,6.426,0,0,1-2.876-1.692,4.342,4.342,0,0,0-1.9-1.227,4.437,4.437,0,0,0-2.03.846,6.93,6.93,0,0,1-3.172,1.227,6.547,6.547,0,0,1-3.13-1.142,4.7,4.7,0,0,0-2.115-.846c-.55.042-1.227.677-1.9,1.227a6.144,6.144,0,0,1-2.876,1.734,3.638,3.638,0,0,1-.677.042,7.236,7.236,0,0,1-2.664-.634,4.106,4.106,0,0,0-2.157-.423A4.618,4.618,0,0,0,48.847,10.7a6.66,6.66,0,0,1-2.5,2.242,4.256,4.256,0,0,1-1.523.254,13.832,13.832,0,0,1-1.861-.169,5.012,5.012,0,0,0-2.242-.042A5.04,5.04,0,0,0,39.416,14.8a6.088,6.088,0,0,1-2.03,2.664,5.964,5.964,0,0,1-3.3.677,4.463,4.463,0,0,0-2.2.381,4.544,4.544,0,0,0-.93,2.03,6.35,6.35,0,0,1-1.523,3,5.883,5.883,0,0,1-3.13,1.269,4.721,4.721,0,0,0-2.115.761,4.569,4.569,0,0,0-.55,2.157A6.626,6.626,0,0,1,22.71,31a6.091,6.091,0,0,1-2.834,1.819c-.8.338-1.649.677-1.9,1.142a4.164,4.164,0,0,0-.127,2.242,6.4,6.4,0,0,1-.338,3.341,6.5,6.5,0,0,1-2.453,2.326,4.608,4.608,0,0,0-1.692,1.48,4.8,4.8,0,0,0,.254,2.2,6.55,6.55,0,0,1,.3,3.383,6.19,6.19,0,0,1-1.945,2.707,5.267,5.267,0,0,0-1.4,1.776,4.63,4.63,0,0,0,.677,2.115,6.284,6.284,0,0,1,.888,3.257A6.158,6.158,0,0,1,10.7,61.828a4.542,4.542,0,0,0-1.015,2.03A4.706,4.706,0,0,0,10.741,65.8a6.425,6.425,0,0,1,1.48,3.045,7.488,7.488,0,0,1-.846,3.3,4.486,4.486,0,0,0-.634,2.115c.085.55.761,1.142,1.4,1.776a5.963,5.963,0,0,1,1.988,2.707,6.155,6.155,0,0,1-.254,3.383,4.85,4.85,0,0,0-.254,2.2,4.608,4.608,0,0,0,1.692,1.48,6.4,6.4,0,0,1,2.453,2.284,6.467,6.467,0,0,1,.381,3.341,4.554,4.554,0,0,0,.169,2.242,4.63,4.63,0,0,0,1.945,1.142,6.362,6.362,0,0,1,2.834,1.776,6.838,6.838,0,0,1,1.015,3.214,4.385,4.385,0,0,0,.592,2.157,4.721,4.721,0,0,0,2.115.761,6.344,6.344,0,0,1,3.13,1.227,6.415,6.415,0,0,1,1.565,3,4.54,4.54,0,0,0,.973,2.03,4.153,4.153,0,0,0,2.2.338,6.247,6.247,0,0,1,3.3.634,6.509,6.509,0,0,1,2.072,2.664,5.039,5.039,0,0,0,1.311,1.819A5.012,5.012,0,0,0,43.6,114.4a14.411,14.411,0,0,1,1.945-.211,3.794,3.794,0,0,1,1.438.254,6.665,6.665,0,0,1,2.538,2.2c.55.677,1.142,1.4,1.649,1.523a4.715,4.715,0,0,0,2.157-.465,9.249,9.249,0,0,1,2.749-.634Z" transform="translate(-7.4 -4.682)"/></svg>
