<svg xmlns="http://www.w3.org/2000/svg" xmlns:xlink="http://www.w3.org/1999/xlink" viewBox="0 0 21.059 20"><defs><style>.a{fill:url(#a);}.b{fill:url(#b);}.c{fill:url(#c);}</style><linearGradient id="a" x1="-0.222" y1="0.952" x2="0.971" y2="-0.34" gradientUnits="objectBoundingBox"><stop offset="0" stop-color="#ce8f2a"/><stop offset="0.17" stop-color="#cf9330"/><stop offset="0.38" stop-color="#d39d3f"/><stop offset="0.62" stop-color="#d8ae59"/><stop offset="0.67" stop-color="#dab360"/><stop offset="0.92" stop-color="#edc64f"/><stop offset="1" stop-color="#edc64f"/></linearGradient><linearGradient id="b" x1="1.543" y1="1.119" x2="0.162" y2="-0.102" xlink:href="#a"/><linearGradient id="c" x1="1.616" y1="1.474" x2="0.258" y2="-0.026" xlink:href="#a"/></defs><g transform="translate(-435 -1135)"><path class="a" d="M173.963,249.27l-3.757,4.959L167,249.922l6.261-1.4C174.163,248.269,174.463,248.619,173.963,249.27Z" transform="translate(281.182 890.03)"/><path class="b" d="M149.407,253.5l-8.265,2.054c-.5.1-.651.7-.15.9l8.065,2.354Z" transform="translate(294.316 887.504)"/><path class="c" d="M156,260.741l1.052-18.734c0-.551.551-.651.9-.25l11.22,13.975c.4.5.3,1.352-.852.9l-6.762-2.6-4.208,7.013C156.9,261.843,155.948,261.543,156,260.741Z" transform="translate(286.674 893.486)"/></g></svg>