<svg xmlns="http://www.w3.org/2000/svg" viewBox="0 0 21 21"><defs><style>.cls-1 { fill: #333d40; }</style></defs><g id="search" transform="translate(-247 -21)"><path id="search-2" data-name="search" class="cls-1" d="M20.855,19.231l-4.979-4.979a.487.487,0,0,0-.349-.144h-.541a8.529,8.529,0,1,0-.878.878v.541a.5.5,0,0,0,.144.349l4.979,4.979a.493.493,0,0,0,.7,0l.927-.927A.493.493,0,0,0,20.855,19.231ZM8.531,15.093a6.562,6.562,0,1,1,6.562-6.562A6.56,6.56,0,0,1,8.531,15.093Z" transform="translate(247 21)"/></g></svg>